<?xml version="1.0" standalone="no"?>
<svg xmlns="http://www.w3.org/2000/svg" viewBox="0 0 338.04362369337986 132.88362369337983" width="338.04362369337986" height="132.88362369337983"><rect fill="none" stroke="#9466db" stroke-width="4" width="334.04362369337986" height="128.88362369337983" x="2" y="2"></rect><g fill="#23c229" color="#23c229" transform="translate(12 14.97) scale(1.9797023)"><svg width="55.0" height="52.0" x="0.0" y="0.0" viewBox="0 0 55 52"><path fill="currentColor" fill-rule="evenodd" d="M29.119 24.154c-.058-.868-.753-1.563-1.621-1.563-.869 0-1.563.695-1.621 1.563-.232 4.979-.984 20.436-2.605 26.282-.232.753.347 1.564 1.157 1.564h6.079c.81 0 1.39-.753 1.158-1.564-1.563-5.846-2.316-21.303-2.547-26.282m11.751-6.367c1.274.115 4.747.29 7.178-1.68 2.432-1.967 3.011-5.383 3.184-6.657.058-.289-.173-.52-.462-.52-1.274-.116-4.748-.29-7.18 1.678-2.43 1.969-3.01 5.384-3.183 6.658 0 .231.232.463.463.52m-5.963-5.036c1.1-.347 3.763-1.331 4.98-3.53 1.215-2.2.694-4.98.346-6.08-.057-.289-.346-.405-.636-.347-1.1.348-3.763 1.332-4.979 3.532-1.216 2.2-.695 4.978-.347 6.078.058.232.347.405.636.347m-4.804 6.89c.868.23 2.836.52 4.4-.348 1.562-.868 2.257-2.721 2.547-3.59.057-.289-.058-.578-.348-.636-.868-.232-2.836-.521-4.4.347-1.562.869-2.257 2.721-2.547 3.59a.463.463 0 0 0 .348.636m10.13 3.126c-.81-.52-2.72-1.62-4.63-1.273-1.969.347-3.358 1.968-3.937 2.72-.174.232-.116.521.116.695.81.521 2.72 1.621 4.63 1.274 1.969-.348 3.358-1.969 3.937-2.721.174-.232.116-.521-.116-.695m-6.02 6.194c-.231-.115-.58-.057-.694.232-.406.868-1.1 2.837-.522 4.573.579 1.795 2.373 2.895 3.184 3.358.232.116.579.058.695-.232.405-.868 1.1-2.836.52-4.573-.578-1.794-2.373-2.894-3.183-3.358m12.157.174c-2.027-1.62-4.979-1.563-6.137-1.447-.29 0-.462.29-.462.579.115 1.157.694 4.052 2.72 5.673 2.027 1.62 4.978 1.563 6.136 1.447.29 0 .463-.29.463-.579-.115-1.158-.636-4.052-2.72-5.673m8.452-6.426c-.81-.81-3.01-2.605-5.5-2.547-2.489.058-4.69 1.91-5.5 2.663-.173.174-.173.521 0 .695.81.81 3.011 2.605 5.5 2.547 2.547 0 4.69-1.91 5.5-2.663.23-.174.23-.463 0-.695m-43.65.116c-.81-.81-2.952-2.663-5.499-2.663-2.547 0-4.689 1.795-5.5 2.547a.434.434 0 0 0 0 .695c.811.81 2.953 2.663 5.5 2.663s4.69-1.795 5.5-2.547c.173-.174.173-.521 0-.695m-4.284-6.715c2.431 1.968 5.905 1.794 7.178 1.679.29 0 .463-.29.463-.521-.115-1.274-.752-4.747-3.184-6.658C8.973 8.64 5.442 8.756 4.168 8.93c-.29 0-.463.289-.463.52.174 1.274.753 4.748 3.184 6.658m13.199-3.358c.29.058.521-.058.637-.347.29-1.1.868-3.879-.348-6.078-1.215-2.2-3.878-3.184-4.978-3.532-.29-.058-.521.058-.637.348-.29 1.1-.868 3.878.347 6.078 1.274 2.2 3.937 3.184 4.979 3.531m-1.795 2.374a.463.463 0 0 0-.347.637c.29.868.984 2.72 2.547 3.589 1.563.868 3.474.579 4.4.347a.463.463 0 0 0 .347-.637c-.29-.868-.984-2.72-2.547-3.589-1.563-.868-3.473-.579-4.4-.347m4.979 9.783c.231-.173.29-.463.116-.694-.58-.753-2.026-2.432-3.937-2.721-1.968-.348-3.82.752-4.631 1.273-.232.174-.29.463-.116.695.58.753 2.026 2.431 3.937 2.72 1.91.348 3.82-.694 4.63-1.273m-2.489 4.052c-.81.464-2.605 1.564-3.183 3.358-.58 1.795.115 3.763.52 4.573.116.29.406.348.695.232.81-.463 2.605-1.563 3.184-3.358.579-1.794-.116-3.762-.52-4.573-.117-.232-.406-.347-.696-.232m-6.078-1.273c-1.158-.116-4.052-.174-6.136 1.447-2.026 1.621-2.605 4.515-2.721 5.673-.058.29.174.521.463.58 1.158.115 4.052.173 6.136-1.448 2.026-1.621 2.605-4.516 2.721-5.673 0-.348-.174-.58-.463-.58m13.14-14.24c.928-.926 3.243-3.531 3.243-6.657S28.772 1.056 27.845.13c-.174-.173-.52-.173-.695 0-.926.926-3.242 3.532-3.242 6.658 0 3.126 2.316 5.73 3.242 6.657a.434.434 0 0 0 .695 0"></path></svg></g><path fill="#23c229" fill-rule="nonzero" d="M3.60 27.20Q2.12 27.20 1.38 26.82Q0.64 26.44 0.32 25.44Q0 24.44 0 22.40L0 22.40L0 0.80L3.60 0.80L3.60 22.40Q3.60 24.44 4.16 25.42Q4.72 26.40 6.40 26.40L6.40 26.40L7.20 26.40L7.20 27.20L3.60 27.20ZM31.04 27.60L13.84 6.20L13.84 27.20L12.24 27.20L12.24 5.60Q12.24 3.68 11.42 2.64Q10.60 1.60 8.64 1.60L8.64 1.60L8.24 1.60L8.24 0.80L10.84 0.80Q12.68 0.80 13.96 1.40Q15.24 2 16.24 3.20L16.24 3.20L30.24 20.60L30.24 0.80L31.84 0.80L31.84 27.60L31.04 27.60ZM46.52 27.88Q44.32 27.88 42.20 27.28Q40.08 26.68 38.74 25.56Q37.40 24.44 37.40 23L37.40 23L37.40 18.72L38.12 18.72Q38.80 22.72 40.76 24.50Q42.72 26.28 46.16 26.28L46.16 26.28Q48.32 26.28 49.86 25.20Q51.40 24.12 51.40 22.20L51.40 22.20Q51.40 20.52 50.36 19.28Q49.32 18.04 47 16.68L47 16.68L42.08 13.76Q39.52 12.24 38.46 10.68Q37.40 9.12 37.40 6.88L37.40 6.88Q37.40 3.80 39.54 1.94Q41.68 0.08 45.16 0.08L45.16 0.08Q47.20 0.08 49.20 0.66Q51.20 1.24 52.50 2.34Q53.80 3.44 53.80 4.88L53.80 4.88L53.80 9.16L53.08 9.16Q52.40 5.16 50.50 3.42Q48.60 1.68 45.16 1.68L45.16 1.68Q43.32 1.68 41.92 2.80Q40.52 3.92 40.52 5.72L40.52 5.72Q40.52 7.36 41.54 8.44Q42.56 9.52 44.96 10.96L44.96 10.96L49.88 13.88Q52.60 15.52 53.72 16.92Q54.84 18.32 54.84 20.48L54.84 20.48Q54.84 23.84 52.60 25.86Q50.36 27.88 46.52 27.88L46.52 27.88ZM66.80 27.20L66.80 2.40L63.20 2.40Q58.20 2.40 58.20 7L58.20 7L57.40 7L57.40 4Q57.40 0.80 60.80 0.80L60.80 0.80L79.40 0.80L79.40 2.40L70.40 2.40L70.40 27.20L66.80 27.20ZM87.04 27.20Q85.56 27.20 84.82 26.82Q84.08 26.44 83.76 25.44Q83.44 24.44 83.44 22.40L83.44 22.40L83.44 0.80L87.04 0.80L87.04 22.40Q87.04 24.44 87.60 25.42Q88.16 26.40 89.84 26.40L89.84 26.40L90.64 26.40L90.64 27.20L87.04 27.20ZM101.28 27.20L101.28 2.40L97.68 2.40Q92.68 2.40 92.68 7L92.68 7L91.88 7L91.88 4Q91.88 0.80 95.28 0.80L95.28 0.80L113.88 0.80L113.88 2.40L104.88 2.40L104.88 27.20L101.28 27.20ZM128.52 27.60Q124.68 27.60 122.44 26.30Q120.20 25 119.26 22.44Q118.32 19.88 118.32 15.80L118.32 15.80L118.32 5.60Q118.32 3.56 117.76 2.58Q117.20 1.60 115.52 1.60L115.52 1.60L114.72 1.60L114.72 0.80L118.32 0.80Q119.80 0.80 120.54 1.18Q121.28 1.56 121.60 2.56Q121.92 3.56 121.92 5.60L121.92 5.60L121.92 17Q121.92 21.44 123.56 23.72Q125.20 26 129 26L129 26Q132.04 26 133.82 24.92Q135.60 23.84 136.36 21.64Q137.12 19.44 137.12 15.80L137.12 15.80L137.12 0.80L138.72 0.80L138.72 15.80Q138.72 19.96 137.84 22.50Q136.96 25.04 134.74 26.32Q132.52 27.60 128.52 27.60L128.52 27.60ZM152.08 27.20L152.08 2.40L148.48 2.40Q143.48 2.40 143.48 7L143.48 7L142.68 7L142.68 4Q142.68 0.80 146.08 0.80L146.08 0.80L164.68 0.80L164.68 2.40L155.68 2.40L155.68 27.20L152.08 27.20ZM177.76 28Q174.04 28 171.22 26.16Q168.40 24.32 166.88 21.12Q165.36 17.92 165.36 14.00L165.36 14.00Q165.36 10.08 166.88 6.88Q168.40 3.68 171.22 1.84Q174.04 0 177.76 0L177.76 0Q181.48 0 184.30 1.84Q187.12 3.68 188.64 6.88Q190.16 10.08 190.16 14.00L190.16 14.00Q190.16 17.92 188.64 21.12Q187.12 24.32 184.30 26.16Q181.48 28 177.76 28L177.76 28ZM177.76 26.40Q180.36 26.40 182.26 24.88Q184.16 23.36 185.16 20.58Q186.16 17.80 186.16 14.00L186.16 14.00Q186.16 10.20 185.16 7.42Q184.16 4.64 182.26 3.12Q180.36 1.60 177.76 1.60L177.76 1.60Q175.16 1.60 173.26 3.12Q171.36 4.64 170.36 7.42Q169.36 10.20 169.36 14.00L169.36 14.00Q169.36 17.80 170.36 20.58Q171.36 23.36 173.26 24.88Q175.16 26.40 177.76 26.40L177.76 26.40Z" transform="translate(135.884 12.001) scale(1)"></path><path fill="#23c229" fill-rule="nonzero" d="M3.60 26.40Q2.12 26.40 1.38 26.02Q0.64 25.64 0.32 24.64Q0 23.64 0 21.60L0 21.60L0 0L3.60 0L3.60 21.60Q3.60 23.64 4.16 24.62Q4.72 25.60 6.40 25.60L6.40 25.60L7.20 25.60L7.20 26.40L3.60 26.40ZM12.08 26.40L12.08 4.80Q12.08 2.76 11.52 1.78Q10.96 0.80 9.28 0.80L9.28 0.80L8.48 0.80L8.48 0L18.96 0Q26.72 0 30.70 3.44Q34.68 6.88 34.68 13.04L34.68 13.04Q34.68 17 33 20.02Q31.32 23.04 28.02 24.72Q24.72 26.40 20 26.40L20 26.40L12.08 26.40ZM19.88 25.00Q22.84 25.00 25.22 23.54Q27.60 22.08 28.96 19.42Q30.32 16.76 30.32 13.20L30.32 13.20Q30.32 9.72 28.98 7.04Q27.64 4.36 25.24 2.88Q22.84 1.40 19.80 1.40L19.80 1.40Q17.88 1.40 15.80 2.04L15.80 2.04L15.80 24.48Q18.04 25.00 19.88 25.00L19.88 25.00ZM43.60 26.40Q42.12 26.40 41.38 26.02Q40.64 25.64 40.32 24.64Q40 23.64 40 21.60L40 21.60L40 0L43.60 0L43.60 21.60Q43.60 23.64 44.16 24.62Q44.72 25.60 46.40 25.60L46.40 25.60L47.20 25.60L47.20 26.40L43.60 26.40ZM52.08 26.40L52.08 4.80Q52.08 2.76 51.52 1.78Q50.96 0.80 49.28 0.80L49.28 0.80L48.48 0.80L48.48 0L58.88 0Q62.72 0 65.80 1.64Q68.88 3.28 68.88 8L68.88 8Q68.88 11.12 67.28 12.80Q65.68 14.48 63.70 15.04Q61.72 15.60 60.08 15.60L60.08 15.60L55.68 15.60L55.68 26.40L52.08 26.40ZM58.68 14.20Q59.96 14.20 61.40 13.54Q62.84 12.88 63.86 11.44Q64.88 10.00 64.88 7.80L64.88 7.80Q64.88 5.60 63.86 4.16Q62.84 2.72 61.40 2.06Q59.96 1.40 58.68 1.40L58.68 1.40Q57.28 1.40 55.68 1.80L55.68 1.80L55.68 13.80Q57.28 14.20 58.68 14.20L58.68 14.20Z" transform="translate(135.884 48.001) scale(2.761)"></path></svg>